:SAMPLES-PER-SECOND 30
:FULLY-SPECIFIED
:DEGREES
1
root  83.1245 40.3934 -4.99834 170.314 -84.6403 -171.396
RightUpLeg  1.28767 -6.42712 -2.6358
RightLeg  2.44502 -3.41039 3.68864
RightFoot  -1.91365 0.176442 -2.29202
RightToes  0.000482159 0.542163 -0.142577
Spine  3.60597 -0.175841 2.6323
Spine1  4.23964 0.162034 -1.64057
HEad  -3.46625 0.179441 -2.01822
LeftShoulder1  0.252124 2.10203 -9.89198
LeftArm  -18.9904 6.19198 -5.99097
LeftForeArm  12.0695 -0.56238 -1.35437
LeftHand  -0.25398 0.0180481 5.50724
RightShoulder  0.342703 -1.29798 8.03569
RightArm  -24.0865 3.53303 2.75706
RightForeArm  2.685 -0.42592 2.06005
RightHand  -3.67148 12.8315 -23.5428
LeftUpLeg  0.953082 5.789 3.62144
LeftLeg  3.28013 13.4632 -3.71258
LeftFoot  -3.40613 -0.000603354 0.397138
LeftToes  1.06247e-005 4.65854e-005 -8.18502e-006
2
root  83.1245 40.3934 -4.9979 170.233 -84.641 -171.315
RightUpLeg  1.28823 -6.4293 -2.63736
RightLeg  2.43677 -3.40038 3.68738
RightFoot  -1.89048 0.175374 -2.27539
RightToes  0.000482159 0.542163 -0.142577
Spine  3.72226 -0.161795 2.63123
Spine1  4.04428 0.173579 -1.62489
HEad  -3.20492 0.900639 -2.14665
LeftShoulder1  0.252634 2.07206 -9.91581
LeftArm  -18.8811 6.24492 -5.94432
LeftForeArm  12.0232 -0.624903 -1.40259
LeftHand  -0.25398 0.0180481 5.50724
RightShoulder  0.351265 -1.25267 8.11176
RightArm  -24.0415 3.47602 2.66893
RightForeArm  2.15497 -0.402989 2.08811
RightHand  -3.62044 12.3937 -23.7736
LeftUpLeg  0.952731 5.78718 3.6221
LeftLeg  3.26792 13.4632 -3.71258
LeftFoot  -3.38626 -0.00285768 0.432173
LeftToes  1.06247e-005 4.65854e-005 -8.18502e-006
3
root  83.1245 40.3934 -4.9957 170.296 -84.6467 -171.382
RightUpLeg  1.29659 -6.4407 -2.6494
RightLeg  2.41688 -3.39093 3.68552
RightFoot  -1.87554 0.17585 -2.28281
RightToes  0.000482159 0.542163 -0.142577
Spine  3.81428 -0.144058 2.60026
Spine1  3.85457 0.183867 -1.59029
HEad  -3.1092 1.71748 -2.15351
LeftShoulder1  0.25558 2.05722 -9.9247
LeftArm  -18.6269 6.3702 -5.90422
LeftForeArm  11.8244 -0.826139 -1.52889
LeftHand  -0.25398 0.0180481 5.50724
RightShoulder  0.369278 -1.1493 8.20174
RightArm  -24.0737 3.39841 2.57431
RightForeArm  1.51321 -0.453269 2.07872
RightHand  -3.52257 11.7365 -24.0014
LeftUpLeg  0.955472 5.77917 3.60395
LeftLeg  3.25944 13.4621 -3.71387
LeftFoot  -3.37426 -0.00651212 0.488968
LeftToes  1.06247e-005 4.65854e-005 -8.18502e-006
4
root  83.1245 40.3934 -4.99165 170.483 -84.6612 -171.587
RightUpLeg  1.3269 -6.45891 -2.67925
RightLeg  2.39311 -3.39198 3.68292
RightFoot  -1.88237 0.176835 -2.29813
RightToes  0.000482159 0.542163 -0.142577
Spine  3.73769 -0.141069 2.63562
Spine1  3.90116 0.205486 -1.67712
HEad  -3.19661 2.44458 -2.04183
LeftShoulder1  0.266113 1.99371 -9.89604
LeftArm  -18.366 6.52366 -5.85311
LeftForeArm  11.5584 -1.03968 -1.65787
LeftHand  -0.25398 0.0180481 5.50724
RightShoulder  0.39332 -1.0122 8.317
RightArm  -24.1491 3.32866 2.50152
RightForeArm  1.06509 -0.534311 2.05202
RightHand  -3.41431 11.2231 -23.9803
LeftUpLeg  0.976181 5.76617 3.57817
LeftLeg  3.2533 13.4563 -3.71946
LeftFoot  -3.38721 -0.00880809 0.524651
LeftToes  1.06247e-005 4.65854e-005 -8.18502e-006
5
root  83.1245 40.3934 -4.98578 170.573 -84.6827 -171.707
RightUpLeg  1.36488 -6.47421 -2.70868
RightLeg  2.40024 -3.39831 3.68107
RightFoot  -1.90427 0.175028 -2.27631
RightToes  0.000482159 0.542163 -0.142577
Spine  3.6798 -0.13305 2.72849
Spine1  3.92384 0.245792 -1.81962
HEad  -3.10704 3.13872 -2.03819
LeftShoulder1  0.297006 1.81806 -9.93872
LeftArm  -18.1826 6.64762 -5.70773
LeftForeArm  11.361 -1.12788 -1.73309
LeftHand  -0.25398 0.0180481 5.50724
RightShoulder  0.409821 -0.92663 8.4479
RightArm  -24.094 3.23243 2.41488
RightForeArm  0.869244 -0.484862 2.08052
RightHand  -3.3569 11.0385 -23.8481
LeftUpLeg  1.01232 5.75271 3.55779
LeftLeg  3.24604 13.4489 -3.72035
LeftFoot  -3.4015 -0.0087603 0.523908
LeftToes  1.06247e-005 4.65854e-005 -8.18502e-006
6
root  83.1244 40.3934 -4.97832 170.462 -84.723 -171.63
RightUpLeg  1.39079 -6.49505 -2.73327
RightLeg  2.45125 -3.40617 3.68316
RightFoot  -1.93404 0.171116 -2.23756
RightToes  0.000482159 0.542163 -0.142577
Spine  3.93776 -0.0664615 2.71394
Spine1  3.46776 0.303288 -1.76379
HEad  -2.67467 3.46189 -2.22069
LeftShoulder1  0.346715 1.5469 -10.1052
LeftArm  -18.0129 6.74393 -5.48051
LeftForeArm  11.2809 -1.10532 -1.78185
LeftHand  -0.25398 0.0180481 5.50724
RightShoulder  0.410355 -0.945047 8.59912
RightArm  -23.8141 3.04027 2.20451
RightForeArm  1.0617 -0.259297 2.1746
RightHand  -3.38938 11.2369 -23.7956
LeftUpLeg  1.03611 5.73272 3.53871
LeftLeg  3.26314 13.4449 -3.69782
LeftFoot  -3.41054 -0.0076409 0.506511
LeftToes  1.06247e-005 4.65854e-005 -8.18502e-006
7
root  83.1235 40.393 -4.97031 170.245 -84.788 -171.446
RightUpLeg  1.40921 -6.52793 -2.75819
RightLeg  2.50785 -3.42527 3.69988
RightFoot  -1.95865 0.170132 -2.23748
RightToes  0.000482159 0.542163 -0.142577
Spine  4.3963 0.0519415 2.54008
Spine1  2.68519 0.363787 -1.47927
HEad  -2.08424 3.32363 -2.48503
LeftShoulder1  0.397642 1.27342 -10.2747
LeftArm  -17.849 6.82025 -5.30063
LeftForeArm  11.3235 -1.01763 -1.81784
LeftHand  -0.25398 0.0180481 5.50724
RightShoulder  0.408457 -0.985044 8.79803
RightArm  -23.4605 2.76842 1.8357
RightForeArm  1.56575 -0.0190078 2.26337
RightHand  -3.46868 11.6391 -23.7808
LeftUpLeg  1.03679 5.71263 3.52022
LeftLeg  3.31936 13.4191 -3.66421
LeftFoot  -3.43881 -0.0068669 0.494482
LeftToes  1.06247e-005 4.65854e-005 -8.18502e-006
8
root  83.1202 40.3915 -4.96175 170.138 -84.8641 -171.361
RightUpLeg  1.43245 -6.56961 -2.7947
RightLeg  2.5366 -3.4568 3.72103
RightFoot  -1.97463 0.17144 -2.2701
RightToes  0.000482159 0.542163 -0.142577
Spine  4.63602 0.14275 2.39074
Spine1  2.19681 0.412619 -1.27294
HEad  -1.7214 2.84706 -2.6195
LeftShoulder1  0.435499 1.06425 -10.3282
LeftArm  -17.7987 6.81977 -5.21995
LeftForeArm  11.4952 -0.808339 -1.79762
LeftHand  -0.25398 0.0180481 5.50724
RightShoulder  0.419897 -0.94962 9.04676
RightArm  -23.253 2.53847 1.43211
RightForeArm  2.0313 0.0652084 2.28808
RightHand  -3.5155 11.9371 -23.6932
LeftUpLeg  1.03528 5.70363 3.50227
LeftLeg  3.37227 13.3564 -3.65491
LeftFoot  -3.4809 -0.00657129 0.489888
LeftToes  1.06247e-005 4.65854e-005 -8.18502e-006
9
root  83.1143 40.3909 -4.95063 170.316 -84.9272 -171.547
RightUpLeg  1.45202 -6.62346 -2.85932
RightLeg  2.55578 -3.46448 3.74047
RightFoot  -2.00183 0.171037 -2.27394
RightToes  0.000482159 0.542163 -0.142577
Spine  4.52884 0.157268 2.41099
Spine1  2.22293 0.441982 -1.3448
HEad  -1.69158 2.42671 -2.55368
LeftShoulder1  0.452551 0.965513 -10.3146
LeftArm  -17.8773 6.69414 -5.16784
LeftForeArm  11.6878 -0.502696 -1.72706
LeftHand  -0.25398 0.0180481 5.50724
RightShoulder  0.427841 -0.926489 9.22766
RightArm  -23.2591 2.49418 1.23019
RightForeArm  2.291 -0.0105904 2.25201
RightHand  -3.51599 12.0088 -23.6039
LeftUpLeg  1.0518 5.69721 3.4687
LeftLeg  3.36444 13.2924 -3.68155
LeftFoot  -3.49459 -0.00683547 0.493993
LeftToes  1.06247e-005 4.65854e-005 -8.18502e-006
10
root  83.1093 40.3906 -4.93645 170.71 -84.9525 -171.945
RightUpLeg  1.45276 -6.68459 -2.94329
RightLeg  2.59533 -3.41957 3.75776
RightFoot  -2.04458 0.16757 -2.22883
RightToes  0.000482159 0.542163 -0.142577
Spine  4.26614 0.124312 2.51424
Spine1  2.55941 0.446857 -1.52844
HEad  -1.86457 2.33706 -2.40108
LeftShoulder1  0.430131 1.09029 -10.2922
LeftArm  -17.9778 6.50292 -5.18194
LeftForeArm  11.658 -0.3607 -1.69231
LeftHand  -0.25398 0.0180481 5.50724
RightShoulder  0.396639 -1.10205 9.1269
RightArm  -23.4771 2.719 1.46533
RightForeArm  2.41504 -0.155172 2.17413
RightHand  -3.50855 11.9452 -23.6384
LeftUpLeg  1.088 5.68819 3.41813
LeftLeg  3.3001 13.2735 -3.72627
LeftFoot  -3.47822 -0.00869466 0.522888
LeftToes  1.06247e-005 4.65854e-005 -8.18502e-006
11
root  83.1076 40.3903 -4.92257 170.99 -84.9247 -172.241
RightUpLeg  1.44094 -6.71426 -2.99457
RightLeg  2.65234 -3.36123 3.7541
RightFoot  -2.06903 0.164113 -2.18343
RightToes  0.000482159 0.542163 -0.142577
Spine  4.22036 0.117299 2.53826
Spine1  2.64623 0.446065 -1.55733
HEad  -1.9435 2.41133 -2.31469
LeftShoulder1  0.394203 1.30197 -10.3516
LeftArm  -17.8689 6.48019 -5.13648
LeftForeArm  11.3258 -0.590337 -1.78754
LeftHand  -0.25398 0.0180481 5.50724
RightShoulder  0.344373 -1.39029 8.88101
RightArm  -23.6923 3.02477 1.82891
RightForeArm  2.30736 -0.274359 2.12383
RightHand  -3.48754 11.7672 -23.7347
LeftUpLeg  1.1382 5.7061 3.39348
LeftLeg  3.24285 13.2905 -3.7786
LeftFoot  -3.48394 -0.0128689 0.587762
LeftToes  1.06247e-005 4.65854e-005 -8.18502e-006
